<svg xmlns="http://www.w3.org/2000/svg" xmlns:xlink="http://www.w3.org/1999/xlink" width="150" height="49.31" viewBox="0 0 150 49.31">
  <defs>
    <linearGradient id="linear-gradient" x1="-0.221" y1="0.5" x2="6.911" y2="0.5" gradientUnits="objectBoundingBox">
      <stop offset="0" stop-color="#836039"/>
      <stop offset="0.5" stop-color="#c4a454"/>
      <stop offset="1" stop-color="#876233"/>
    </linearGradient>
    <linearGradient id="linear-gradient-2" x1="-2.018" y1="0.5" x2="7.002" y2="0.5" xlink:href="#linear-gradient"/>
    <linearGradient id="linear-gradient-3" x1="-3.015" y1="0.5" x2="4.909" y2="0.5" xlink:href="#linear-gradient"/>
    <linearGradient id="linear-gradient-4" x1="-4.343" y1="0.5" x2="3.743" y2="0.5" xlink:href="#linear-gradient"/>
    <linearGradient id="linear-gradient-5" x1="-6.237" y1="0.5" x2="2.784" y2="0.5" xlink:href="#linear-gradient"/>
    <linearGradient id="linear-gradient-6" x1="-7.046" y1="0.5" x2="1.294" y2="0.5" xlink:href="#linear-gradient"/>
    <linearGradient id="linear-gradient-7" x1="-0.214" y1="0.5" x2="1.229" y2="0.5" xlink:href="#linear-gradient"/>
  </defs>
  <g id="Logo" transform="translate(-13.16 -15.15)">
    <g id="Group_1" data-name="Group 1" transform="translate(13.16 47.214)">
      <path id="Path_1" data-name="Path 1" d="M13.16,142.02V124.78h3.247L24.529,135.2l7.941-10.422h3.212v17.24H31.965V131.37c0-.208.015-.468.041-.784s.061-.67.105-1.059c-.216.445-.407.813-.57,1.1s-.31.524-.442.711l-6.476,8.611h-.8l-6.491-8.643a10.622,10.622,0,0,1-.611-.921,6.023,6.023,0,0,1-.415-.839c.032.36.059.684.073.98s.023.576.023.848v10.65H13.16Z" transform="translate(-13.16 -124.777)" fill="url(#linear-gradient)"/>
      <path id="Path_2" data-name="Path 2" d="M118.99,142.02V124.78h17.647v2.937H123v3.849h7.959V134.5H123v4.273h13.8v3.247H118.99Z" transform="translate(-88.035 -124.777)" fill="url(#linear-gradient-2)"/>
      <path id="Path_3" data-name="Path 3" d="M205.09,142.013v-17.24h2.741l12.133,10.161q.619.5,1.094.954a10.577,10.577,0,0,1,.866.921q-.1-1.452-.132-2.056c-.02-.4-.032-.711-.032-.93V124.77h3.6v17.24h-2.741l-12.657-10.65c-.3-.272-.57-.515-.8-.734a9.085,9.085,0,0,1-.638-.67q.083.8.123,1.509c.026.474.041.883.041,1.231v9.313h-3.6Z" transform="translate(-148.95 -124.77)" fill="url(#linear-gradient-3)"/>
      <path id="Path_4" data-name="Path 4" d="M303.042,127.863V142.02h-4.013V127.863H291.12V124.78h19.867v3.083Z" transform="translate(-209.817 -124.777)" fill="url(#linear-gradient-4)"/>
      <path id="Path_5" data-name="Path 5" d="M375.82,142.02V124.78h17.647v2.937H379.83v3.849h7.959V134.5H379.83v4.273h13.8v3.247H375.82Z" transform="translate(-269.742 -124.777)" fill="url(#linear-gradient-5)"/>
      <path id="Path_6" data-name="Path 6" d="M475.624,127.806H464.336v3.7h10.749q2.527,0,3.416.866a4.453,4.453,0,0,1,.889,3.212v2.366a4.453,4.453,0,0,1-.889,3.212q-.891.864-3.416.866h-10.65q-2.527,0-3.416-.866a4.453,4.453,0,0,1-.889-3.212v-.474l3.539-.734v2.039h12.183v-3.931H465.105q-2.514,0-3.393-.866a4.484,4.484,0,0,1-.88-3.212v-1.907a4.483,4.483,0,0,1,.88-3.212q.882-.864,3.393-.866h9.784a5.09,5.09,0,0,1,3.352.831,3.861,3.861,0,0,1,.921,2.951v.36l-3.539.831Z" transform="translate(-329.391 -124.784)" fill="url(#linear-gradient-6)"/>
    </g>
    <path id="Path_7" data-name="Path 7" d="M222.04,15.15v2.343h.009V32.922h-.009v9.2l2.343-2.018v-.035l1.19-1.041c1.5,1.267,4.583,3.062,10.176,3.232a29.111,29.111,0,0,0,6.122-.45l0,0a13.293,13.293,0,0,0,5.192-2.042l2.79,2.355V15.15Zm2.352,2.343h6.5a9.866,9.866,0,0,0-4.481,2.241L225.2,18.71l-.807-.679Zm9.223,10.916h-9.223V20.655Zm1.778,12.083-2.969-.38c-.061-.009-.126-.026-.187-.041s-.126-.026-.187-.041l-.374-.088-.374-.1c-.123-.032-.249-.067-.371-.1s-.246-.073-.369-.111-.243-.076-.363-.117-.24-.082-.36-.126l-.354-.132c-.117-.044-.234-.091-.348-.137s-.228-.1-.342-.146-.222-.1-.333-.152l-.328-.158c-.108-.053-.214-.108-.319-.167s-.208-.114-.31-.173-.2-.117-.3-.181-.193-.123-.29-.187-.187-.129-.278-.193-.178-.132-.266-.2-.17-.137-.254-.208-.161-.14-.24-.214-.152-.146-.228-.222-.143-.149-.214-.228-.135-.155-.2-.234-.123-.158-.181-.24-.111-.164-.164-.249-.1-.167-.149-.254-.091-.173-.132-.26a2.6,2.6,0,0,1-.152-.4,2.518,2.518,0,0,1-.05-.7v-.433l-.02-1.694V30.126h11Zm0-13.18-7.3-6.16c1.062-1.287,3.335-2.34,7.3-2.475Zm2.343-8.62a10.167,10.167,0,0,1,6.587,2.457l-6.587,6.4Zm0,21.8V31.913l7.745,6.534C243.937,39.682,241.281,40.384,237.736,40.492Zm8.971-3.633L238.49,29.93c8.567,1.319,8.588,3.63,8.588,5.344A3.837,3.837,0,0,1,246.707,36.859ZM247.5,24v6.967c-1.465-1.068-3.867-1.942-7.669-2.6l7.669-7.5Zm-1.58-4.756a10.32,10.32,0,0,0-4.069-1.752h5.651Z" transform="translate(-147.783 0)" fill="url(#linear-gradient-7)"/>
  </g>
</svg>
