<svg xmlns="http://www.w3.org/2000/svg" viewBox="0 0 11.38 11.56"><defs><style>.cls-1{fill:#fff;}</style></defs><g id="Layer_2" data-name="Layer 2"><g id="Layer_1-2" data-name="Layer 1"><path class="cls-1" d="M9.46,11.56H1.92A1.83,1.83,0,0,1,0,9.83V7.08H1V9.83a.84.84,0,0,0,.92.73H9.46a.85.85,0,0,0,.92-.73V7.08h1V9.83A1.84,1.84,0,0,1,9.46,11.56Z"/><path class="cls-1" d="M9.21,4.63a.74.74,0,0,0-.68-.49.84.84,0,0,0-.67.3L6.31,6V.12A.12.12,0,0,0,6.19,0h-1a.13.13,0,0,0-.13.12v6C4.55,5.54,4,5,3.53,4.46a1,1,0,0,0-.47-.28.74.74,0,0,0-.85.37.77.77,0,0,0,.16,1C3.18,6.33,4,7.12,4.79,8s1.1.75,1.8,0S8.21,6.32,9,5.5A.77.77,0,0,0,9.21,4.63Z"/></g></g></svg>