<svg xmlns="http://www.w3.org/2000/svg" xmlns:xlink="http://www.w3.org/1999/xlink" viewBox="0 0 7.97 7.97"><defs><style>.cls-1{fill:url(#linear-gradient);}</style><linearGradient id="linear-gradient" x1="-0.89" y1="3.99" x2="8.64" y2="3.99" gradientUnits="userSpaceOnUse"><stop offset="0" stop-color="#4e3718"/><stop offset="0.5" stop-color="#b9883d"/><stop offset="1" stop-color="#593f19"/></linearGradient></defs><g id="Layer_2" data-name="Layer 2"><g id="Layer_1-2" data-name="Layer 1"><path class="cls-1" d="M8,4A4,4,0,1,1,4,0,4,4,0,0,1,8,4ZM4,7.47A3.49,3.49,0,1,0,.53,3.64,3.46,3.46,0,0,0,3,7.3V4.48H2.46s-.06,0-.06-.05V3.55a.09.09,0,0,1,0,0H3V3.44c0-.2,0-.39,0-.59a3.91,3.91,0,0,1,0-.48,1,1,0,0,1,.6-.76A1.65,1.65,0,0,1,4.2,1.5h.69v.94s0,0,0,0H4.32a.28.28,0,0,0-.22.11A.41.41,0,0,0,4,2.88V3.5h.88v0c0,.31-.09.62-.14.93,0,0,0,0,0,0H4Z"/></g></g></svg>