<svg xmlns="http://www.w3.org/2000/svg" xmlns:xlink="http://www.w3.org/1999/xlink" viewBox="0 0 7.98 7.97"><defs><style>.cls-1{fill:url(#linear-gradient);}.cls-2{fill:url(#linear-gradient-2);}.cls-3{fill:url(#linear-gradient-3);}</style><linearGradient id="linear-gradient" x1="-0.7" y1="3.99" x2="8.48" y2="3.99" gradientUnits="userSpaceOnUse"><stop offset="0" stop-color="#4e3718"/><stop offset="0.5" stop-color="#b9883d"/><stop offset="1" stop-color="#593f19"/></linearGradient><linearGradient id="linear-gradient-2" x1="-0.7" y1="3.98" x2="8.48" y2="3.98" xlink:href="#linear-gradient"/><linearGradient id="linear-gradient-3" x1="-0.7" y1="1.85" x2="8.48" y2="1.85" xlink:href="#linear-gradient"/></defs><g id="Layer_2" data-name="Layer 2"><g id="Layer_1-2" data-name="Layer 1"><path class="cls-1" d="M5.28,8H2.61c-.26,0-.51,0-.77-.07A2.08,2.08,0,0,1,.1,6.23,5.4,5.4,0,0,1,0,5Q0,4,0,2.93A5.87,5.87,0,0,1,.09,1.82,2,2,0,0,1,1.59.12a3.68,3.68,0,0,1,1-.12h3A3.37,3.37,0,0,1,6.3.1,2,2,0,0,1,7.78,1.37,3,3,0,0,1,8,2.55Q8,3.87,8,5.19a5.92,5.92,0,0,1,0,.84A2,2,0,0,1,7.49,7.1a2.21,2.21,0,0,1-1.69.84ZM4,7.27v0h.86a6.91,6.91,0,0,0,1.2-.07,1.35,1.35,0,0,0,1.1-1,3.31,3.31,0,0,0,.1-.83c0-.66,0-1.32,0-2,0-.44,0-.89-.06-1.34A1.34,1.34,0,0,0,6.14.81a3.73,3.73,0,0,0-1-.09c-.66,0-1.32,0-2,0A6.73,6.73,0,0,0,2,.78,1.36,1.36,0,0,0,.82,1.83a3.53,3.53,0,0,0-.08.86q0,1.29,0,2.58A4.77,4.77,0,0,0,.8,6a1.36,1.36,0,0,0,.61,1,1.75,1.75,0,0,0,.87.24Z"/><path class="cls-2" d="M6.05,4a2.06,2.06,0,1,1-2-2A2.05,2.05,0,0,1,6.05,4ZM4,5.31A1.33,1.33,0,1,0,2.67,4,1.32,1.32,0,0,0,4,5.31Z"/><path class="cls-3" d="M6.13,2.33a.49.49,0,0,1-.48-.49.47.47,0,0,1,.48-.47.48.48,0,1,1,0,1Z"/></g></g></svg>