<svg xmlns="http://www.w3.org/2000/svg" xmlns:xlink="http://www.w3.org/1999/xlink" viewBox="0 0 7.97 7.97"><defs><style>.cls-1{fill:url(#linear-gradient);}.cls-2{fill:url(#linear-gradient-2);}.cls-3{fill:url(#linear-gradient-3);}.cls-4{fill:url(#linear-gradient-4);}</style><linearGradient id="linear-gradient" x1="-1.06" y1="3.99" x2="8.68" y2="3.99" gradientUnits="userSpaceOnUse"><stop offset="0" stop-color="#4e3718"/><stop offset="0.5" stop-color="#b9883d"/><stop offset="1" stop-color="#593f19"/></linearGradient><linearGradient id="linear-gradient-2" x1="-1.06" y1="4.76" x2="8.68" y2="4.76" xlink:href="#linear-gradient"/><linearGradient id="linear-gradient-3" x1="-1.06" y1="4.8" x2="8.68" y2="4.8" xlink:href="#linear-gradient"/><linearGradient id="linear-gradient-4" x1="-1.06" y1="2.08" x2="8.68" y2="2.08" xlink:href="#linear-gradient"/></defs><g id="Layer_2" data-name="Layer 2"><g id="Layer_1-2" data-name="Layer 1"><path class="cls-1" d="M7.12,8H.86a.93.93,0,0,1-.49-.2A.91.91,0,0,1,0,7.22s0-.06,0-.09V.77s0,0,0-.06A.82.82,0,0,1,.25.27.91.91,0,0,1,.71,0L.82,0h6.4A.79.79,0,0,1,7.77.3.79.79,0,0,1,8,.78V7.13a.84.84,0,0,1-.06.24.85.85,0,0,1-.7.59ZM4,.57H.88a.33.33,0,0,0-.23.1A.28.28,0,0,0,.57.82V7.05a.31.31,0,0,0,0,.13.35.35,0,0,0,.34.22H7.12a.21.21,0,0,0,.13-.05.38.38,0,0,0,.11-.11.46.46,0,0,0,0-.2Q7.4,4,7.4.87v0A.28.28,0,0,0,7.19.57H4Z"/><path class="cls-2" d="M4.3,3.58l0,0a1.12,1.12,0,0,1,.17-.2,1,1,0,0,1,.61-.28,1.29,1.29,0,0,1,.44,0,1.07,1.07,0,0,1,.75.57,1.69,1.69,0,0,1,.17.58c0,.12,0,.23,0,.34V6.42a0,0,0,0,1,0,0h-1s-.06,0-.06-.06V4.67a1.31,1.31,0,0,0,0-.34,1.19,1.19,0,0,0-.08-.2A.48.48,0,0,0,5,3.94.55.55,0,0,0,4.54,4a.6.6,0,0,0-.25.46V6.42s0,0,0,0h-1c-.07,0-.07,0-.07-.08V3.22c0-.07,0-.07.07-.07h.93c.07,0,.07,0,.07.07s0,.22,0,.34Z"/><path class="cls-3" d="M2.58,4.8V6.38c0,.08,0,.08-.08.08H1.59c-.07,0-.07,0-.07-.08V3.22c0-.07,0-.07.07-.07H2.5c.08,0,.08,0,.08.07Z"/><path class="cls-4" d="M2.08,1.51a.58.58,0,0,1,.4.14.64.64,0,0,1,.13.19.64.64,0,0,1,0,.41.5.5,0,0,1-.35.37.7.7,0,0,1-.38,0,.55.55,0,0,1-.38-.46.64.64,0,0,1,.06-.36A.51.51,0,0,1,2,1.52Z"/></g></g></svg>