<svg id="Logo-white" xmlns="http://www.w3.org/2000/svg" width="250" height="82.181" viewBox="0 0 250 82.181">
  <g id="Group_28" data-name="Group 28" transform="translate(0 53.441)">
    <path id="Path_65" data-name="Path 65" d="M0,164.482V135.75H5.409l13.535,17.37,13.24-17.37h5.354v28.732h-6.2V146.73c0-.342.024-.78.067-1.3s.1-1.114.177-1.768q-.543,1.116-.953,1.835t-.732,1.181L19.11,161.03H17.78L6.961,146.624a17.8,17.8,0,0,1-1.02-1.535,10.482,10.482,0,0,1-.693-1.4c.055.6.094,1.142.122,1.63s.039.961.039,1.413v17.752H0Z" transform="translate(0 -135.746)" fill="#fff"/>
    <path id="Path_66" data-name="Path 66" d="M131.05,164.482V135.75h29.413v4.894H137.739v6.417H151v4.894H137.739v7.122h23v5.409H131.05Z" transform="translate(-79.456 -135.746)" fill="#fff"/>
    <path id="Path_67" data-name="Path 67" d="M237.66,164.482V135.75h4.567l20.224,16.937c.689.563,1.3,1.091,1.823,1.591a18.644,18.644,0,0,1,1.441,1.535q-.165-2.421-.217-3.425c-.035-.669-.055-1.185-.055-1.551V135.75h6.008v28.732h-4.567L245.79,146.73q-.762-.679-1.331-1.224a14.725,14.725,0,0,1-1.059-1.114c.091.89.157,1.724.2,2.516s.067,1.472.067,2.051v15.524H237.66Z" transform="translate(-144.093 -135.746)" fill="#fff"/>
    <path id="Path_68" data-name="Path 68" d="M364.064,140.888v23.595h-6.689V140.888H344.19V135.75H377.3v5.138Z" transform="translate(-208.682 -135.746)" fill="#fff"/>
    <path id="Path_69" data-name="Path 69" d="M449.07,164.482V135.75h29.413v4.894H455.759v6.417h13.264v4.894H455.759v7.122h23v5.409H449.07Z" transform="translate(-272.271 -135.746)" fill="#fff"/>
    <path id="Path_70" data-name="Path 70" d="M579.3,140.771H560.488v6.169H578.4q4.211,0,5.693,1.441t1.48,5.354v3.941q0,3.915-1.48,5.354t-5.693,1.441H560.653q-4.217,0-5.693-1.441t-1.48-5.354v-.787l5.9-1.224v3.4h20.307v-6.551H561.771q-4.187,0-5.653-1.441t-1.469-5.354v-3.181q0-3.915,1.469-5.354t5.653-1.441h16.311q4.051,0,5.587,1.386t1.535,4.921v.6l-5.9,1.386v-3.26Z" transform="translate(-335.574 -135.74)" fill="#fff"/>
  </g>
  <path id="Path_71" data-name="Path 71" d="M258.64,0V3.906h.016V29.622h-.016V44.965l3.906-3.362v-.059l1.984-1.736c2.5,2.114,7.638,5.1,16.961,5.39a48.5,48.5,0,0,0,10.2-.748l-.008,0a22.188,22.188,0,0,0,8.654-3.4l4.65,3.921V0Zm3.921,3.906h10.831c-.413.1-.807.213-1.189.331-.055.016-.106.031-.157.051-.268.083-.52.169-.772.26a16.785,16.785,0,0,0-4.815,2.626c-.185.154-.366.311-.532.469L262.565,4.8v-.9Zm0,5.268,1.354,1.142a6.968,6.968,0,0,0-.76,3.024c0,3.862,1.7,6.669,8.933,8.76h-9.528Zm4.854,4.094,7.843,6.614C269.112,18.461,267.416,16.7,267.416,13.268ZM280.9,42.24l-4.949-.634c-13.071-2.858-13.386-9.248-13.386-9.248V24.972H280.9Zm0-21.968L268.727,10c1.768-2.142,5.559-3.9,12.173-4.126Zm3.906-14.366c5.22.291,9,1.512,11.406,3.685L284.805,20.669Zm0,36.335v-14.3l12.909,10.89C295.136,40.886,290.711,42.055,284.805,42.24Zm14.953-6.059L286.065,24.63c14.28,2.2,14.311,6.051,14.311,8.906A6.386,6.386,0,0,1,299.758,36.181Zm1.327-21.429V26.366c-2.445-1.776-6.441-3.236-12.783-4.331L301.085,9.177Zm0-9.894-2.291,2.224a18.905,18.905,0,0,0-7.126-3.173h9.417Z" transform="translate(-156.813)" fill="#fff"/>
</svg>
