<svg xmlns="http://www.w3.org/2000/svg" xmlns:xlink="http://www.w3.org/1999/xlink" viewBox="0 0 88.97 29.62"><defs><style>.cls-1{fill:url(#linear-gradient);}.cls-2{fill:url(#linear-gradient-10);}.cls-3{fill:url(#linear-gradient-11);}</style><linearGradient id="linear-gradient" x1="79.93" y1="23.97" x2="15.14" y2="23.97" gradientUnits="userSpaceOnUse"><stop offset="0" stop-color="#4e3718"/><stop offset="0.5" stop-color="#b9883d"/><stop offset="1" stop-color="#593f19"/></linearGradient><linearGradient id="linear-gradient-10" x1="79.93" y1="8.38" x2="15.14" y2="8.38" xlink:href="#linear-gradient"/><linearGradient id="linear-gradient-11" x1="79.93" y1="14.11" x2="15.14" y2="14.11" xlink:href="#linear-gradient"/></defs><g id="Layer_2" data-name="Layer 2"><g id="Layer_1-2" data-name="Layer 1"><path class="cls-1" d="M1.75,23.81c0,3.14,1.61,5.25,4.36,5.25A3.73,3.73,0,0,0,10.05,26h.16c-.11,1.4-1.4,3.64-4.69,3.64A5.3,5.3,0,0,1,0,24c0-3.34,2.2-5.64,6.11-5.64a13.5,13.5,0,0,1,3.12.6l.65,3.13H9.8c-.41-.58-2.2-3.61-3.69-3.61C3.36,18.45,1.75,20.68,1.75,23.81Z"/><path class="cls-1" d="M17.31,18.33A5.31,5.31,0,0,1,22.94,24a5.32,5.32,0,0,1-5.63,5.65A5.33,5.33,0,0,1,11.65,24,5.32,5.32,0,0,1,17.31,18.33Zm0,11.16c2.32,0,3.88-2.29,3.88-5.52s-1.56-5.52-3.88-5.52S13.4,20.74,13.4,24,15,29.49,17.31,29.49Z"/><path class="cls-1" d="M33.27,28.56V21.17a2.61,2.61,0,0,0-2.5-2.69v-.07h4.07v.07c-.54,0-1.38.86-1.38,2.69v8.37H32L25.52,19.41v7.36A2.73,2.73,0,0,0,28,29.46v.08H24.26v-.08c.54,0,1.07-.86,1.07-2.69V19.9c0-1-.42-1.42-1.07-1.42v-.07h2.61Z"/><path class="cls-1" d="M37.83,20.55c0,3.25,6.83,2,6.83,5.89,0,2-1.75,3.18-4.28,3.18-3.06,0-4.5-1.57-4.5-2.72l1.91-1,.08.11-.47.27a2.93,2.93,0,0,0,3.23,3.18,2.43,2.43,0,0,0,2.61-2.35c0-3.39-6.76-2.08-6.76-5.87,0-1.78,1.48-2.94,3.58-2.94a15,15,0,0,1,3.56.55L44,21.41l-.11.07c-.42-.59-2-3-3.93-3A2.11,2.11,0,0,0,37.83,20.55Z"/><path class="cls-1" d="M48.89,28.05c0,1.05.41,1.41,1.07,1.41v.08H46.23v-.08c.66,0,1.07-.36,1.07-1.41V19.9c0-1-.41-1.42-1.07-1.42v-.07H50v.07c-.66,0-1.07.37-1.07,1.42Z"/><path class="cls-1" d="M53,23.81c0,3.14,1.6,5.25,4.36,5.25a4.12,4.12,0,0,0,2.53-.78v-2.6c0-1.09-.61-1.63-1.83-1.63V24h4.48v.08c-.65,0-1.06.37-1.06,1.42v4.07h-.13l-1.27-1a5.05,5.05,0,0,1-3.31,1.08A5.29,5.29,0,0,1,51.28,24c0-3.34,2.19-5.64,6.11-5.64a13.31,13.31,0,0,1,3.11.6l.66,3.13h-.08c-.42-.58-2.2-3.61-3.69-3.61C54.63,18.45,53,20.68,53,23.81Z"/><path class="cls-1" d="M66.15,29.3h2c1.5,0,3.18-1.83,3.6-2.42h.07L71,29.54H63.5v-.08c.65,0,1.06-.36,1.06-1.41V19.9c0-1-.41-1.42-1.06-1.42v-.07h3.72v.07c-.65,0-1.07.37-1.07,1.42Z"/><path class="cls-1" d="M75.29,28.05c0,1.05.41,1.41,1.06,1.41v.08H72.63v-.08c.65,0,1.06-.36,1.06-1.41V19.9c0-1-.41-1.42-1.06-1.42v-.07h3.72v.07c-.65,0-1.06.37-1.06,1.42Z"/><path class="cls-1" d="M83.33,18.33A5.32,5.32,0,0,1,89,24a5.65,5.65,0,1,1-11.3,0A5.33,5.33,0,0,1,83.33,18.33Zm0,11.16c2.33,0,3.89-2.29,3.89-5.52s-1.56-5.52-3.89-5.52S79.42,20.74,79.42,24,81,29.49,83.33,29.49Z"/><path class="cls-2" d="M36,9.49s7.13-2.42,7,7.26h.94s0-5.88-2-10c0,0-.31-.75.61-2.44l2-3.85L47.1,5.74a2.75,2.75,0,0,1-.33,1.94s-2.05,6.08-1.55,9.07h.89S45.22,7.6,53,9.43V.92S53.12,0,51.76,0H36.87S36,.08,36,.92Z"/><path class="cls-3" d="M41.69,16.71s0-.12,0-.27c0-.34-.09-.69-.15-1A5.91,5.91,0,0,0,40,12.05,2.66,2.66,0,0,0,36.73,12c-.35.26-.8.91-.57,1.37s1.08-.23,1.41-.31a1.76,1.76,0,0,1,2,1.14,3,3,0,0,1-.36,2.56s1,.05,1.09.05h1.09C41.54,16.76,41.65,16.76,41.69,16.71Z"/><path class="cls-3" d="M47.41,16.71s0-.12,0-.27c0-.34.08-.69.15-1a5.84,5.84,0,0,1,1.56-3.36A2.67,2.67,0,0,1,52.38,12c.35.26.79.91.57,1.37s-1.08-.23-1.41-.31a1.76,1.76,0,0,0-1.95,1.14,3,3,0,0,0,.35,2.56s-1,.05-1.09.05H47.77C47.56,16.76,47.46,16.76,47.41,16.71Z"/></g></g></svg>