<svg xmlns="http://www.w3.org/2000/svg" xmlns:xlink="http://www.w3.org/1999/xlink" width="41.004" height="40" viewBox="0 0 41.004 40">
  <defs>
    <linearGradient id="linear-gradient" x1="-0.214" y1="0.5" x2="1.229" y2="0.5" gradientUnits="objectBoundingBox">
      <stop offset="0" stop-color="#836039"/>
      <stop offset="0.5" stop-color="#c4a454"/>
      <stop offset="1" stop-color="#876233"/>
    </linearGradient>
  </defs>
  <g id="Logo-footer" transform="translate(-139 -4786)">
    <path id="Logo" d="M222.04,15.15V18.6h.013V41.353h-.013V54.925l3.454-2.976V51.9l1.755-1.535c2.208,1.867,6.758,4.515,15,4.765a42.921,42.921,0,0,0,9.026-.664l0,0a19.6,19.6,0,0,0,7.655-3.01l4.114,3.472V15.15Zm3.467,3.454h9.583a14.546,14.546,0,0,0-6.607,3.3L226.7,20.4l-1.19-1ZM239.1,34.7h-13.6V23.266Zm2.622,17.815-4.377-.561c-.091-.013-.185-.039-.276-.06s-.185-.039-.276-.06l-.552-.129-.552-.142c-.181-.047-.367-.1-.548-.151s-.362-.108-.543-.164-.358-.112-.535-.173-.354-.121-.53-.185-.349-.129-.522-.194-.345-.134-.513-.2-.336-.142-.5-.216-.328-.147-.492-.224l-.483-.233c-.16-.078-.315-.16-.47-.246s-.306-.168-.457-.254-.3-.173-.44-.267-.285-.181-.427-.276-.276-.19-.41-.285-.263-.194-.392-.3-.25-.2-.375-.306-.237-.207-.354-.315-.224-.216-.336-.328-.211-.22-.315-.336-.2-.229-.289-.345-.181-.233-.267-.354-.164-.242-.241-.367-.151-.246-.22-.375-.134-.254-.194-.384a3.838,3.838,0,0,1-.224-.587,3.713,3.713,0,0,1-.073-1.026v-.638l-.03-2.5V37.23h16.22Zm0-19.432L230.958,24c1.566-1.9,4.916-3.45,10.769-3.648Zm3.454-12.709c4.619.259,7.586,1.7,9.712,3.623l-9.712,9.44Zm0,32.142V39.865L256.6,49.5C254.324,51.32,250.408,52.355,245.181,52.514Zm13.227-5.356L246.294,36.941c12.632,1.945,12.662,5.352,12.662,7.879A5.657,5.657,0,0,1,258.408,47.158ZM259.581,28.2V38.472c-2.161-1.574-5.7-2.864-11.308-3.834l11.308-11.062Zm-2.329-7.012a15.216,15.216,0,0,0-6-2.583h8.332Z" transform="translate(-83.04 4770.85)" fill="url(#linear-gradient)"/>
  </g>
</svg>
