<svg xmlns="http://www.w3.org/2000/svg" width="50.008" height="50" viewBox="0 0 50.008 50">
  <g id="Coaching-icon" transform="translate(0 -0.001)">
    <path id="Path_48" data-name="Path 48" d="M25.067.032C31.819.032,38.572.09,45.323,0a5.079,5.079,0,0,1,4.749,4.75q-.143,5.287,0,10.581c.047,1.81-1.959,3.9-3.527,4.42-1.55.513-3.078.206-4.611.317a1.179,1.179,0,0,0-1.008.456c-.8,1.2-1.694,2.331-2.568,3.477-.092.12-.172.249-.262.371-.375.51-.746.495-1.112-.006q-1.406-1.93-2.842-3.839a1.087,1.087,0,0,0-.942-.456q-8.148.019-16.3,0c-.572,0-.83.344-1.115.738-.9,1.238-1.8,2.475-2.727,3.688a.54.54,0,0,1-.967-.05c-.861-1.343-2.006-2.477-2.819-3.856a1.02,1.02,0,0,0-.974-.521c-.951.027-1.907-.04-2.856.016A5.641,5.641,0,0,1,.27,16.608a3.091,3.091,0,0,1-.175-.945C.091,11.876.08,8.089.1,4.3A4.935,4.935,0,0,1,3.106.327a4.829,4.829,0,0,1,1.769-.3q10.1.008,20.191,0M25.1,2.537v0q-10.064,0-20.127,0A2.384,2.384,0,0,0,2.6,4.916q-.015,5-.005,10a2.739,2.739,0,0,0,2.569,2.556c1.428.009,2.857.015,4.285,0a1.046,1.046,0,0,1,1.046.505c.413.766,1.137,1.287,1.543,2.07.348.67.772.676,1.134.026.4-.727,1.038-1.269,1.443-1.986a1.274,1.274,0,0,1,1.254-.62q9.187.023,18.374,0a1.491,1.491,0,0,1,1.386.754c.422.649.947,1.223,1.37,1.878.4.619.752.615,1.1-.012.417-.742,1.06-1.306,1.482-2.037a1.169,1.169,0,0,1,1.144-.577q2.142.033,4.285,0a2.731,2.731,0,0,0,2.526-2.54q.013-4.9.006-9.8a2.417,2.417,0,0,0-2.572-2.581q-9.934,0-19.868,0" transform="translate(-0.065 0)" fill="#ba9950"/>
    <path id="Path_49" data-name="Path 49" d="M43.446,110.392c0,.606.015,1.213,0,1.818a8.666,8.666,0,0,1-.962,3.574c-.4.806-.3.992.475,1.356a42.581,42.581,0,0,1,5.065,2.327,3.686,3.686,0,0,1,1.974,3.469c-.054.906-.022,1.818-.006,2.727.007.409-.138.584-.563.581-1.807-.012-1.611.13-1.552-1.491a3.384,3.384,0,0,0-1.567-3.312,22.829,22.829,0,0,0-2.161-.967c-1.024-.485-2.107-.823-3.106-1.381-1.169-.654-1.4-1.786-1.7-2.908-.069-.257.1-.45.242-.645a6.407,6.407,0,0,0,1.273-4.153,16.818,16.818,0,0,1,.018-2.725c.172-1.337-1.853-2.971-2.99-3a3.352,3.352,0,0,0-3.128,1.56,3.479,3.479,0,0,0-.634,1.791,7.182,7.182,0,0,0,.258,2.949,2.362,2.362,0,0,1,.1,1.025,2.509,2.509,0,0,0,.606,1.8c1.415,1.656.148,3.848-1.335,4.506-1.563.693-3.159,1.314-4.713,2.026a2.382,2.382,0,0,0-1.575,2.374c.025.627-.007,1.256.005,1.883.008.422-.151.66-.6.66-1.147,0-2.294,0-3.442.008-.4,0-.524-.225-.521-.579a7.771,7.771,0,0,0-.326-2.614,2.841,2.841,0,0,0-1.687-1.8q-1.59-.686-3.183-1.364a6.526,6.526,0,0,1-2.387-1.366,3.324,3.324,0,0,1-.971-2.179,1.346,1.346,0,0,1,.291-.9,7.288,7.288,0,0,0,1.253-3.994c.045-.777-.01-1.559.016-2.338a3.464,3.464,0,0,0-4.076-3.4A3.538,3.538,0,0,0,9.156,108.9c.014.866-.071,1.74.024,2.6a7.436,7.436,0,0,0,1.228,3.928,1.648,1.648,0,0,1,.224,1.6,4.294,4.294,0,0,1-2.733,2.7,33.9,33.9,0,0,0-4.23,1.85,2.188,2.188,0,0,0-1.152,2.094c.022.605-.017,1.213.007,1.818.021.519-.176.761-.71.754-2.205-.029-1.771.283-1.786-1.676a6.5,6.5,0,0,1,.26-2.813A5.421,5.421,0,0,1,2.8,119.077c1.495-.791,3.108-1.307,4.65-1.989.406-.18.6-.366.339-.873A13.607,13.607,0,0,1,6.634,108.1a5.431,5.431,0,0,1,3.1-4.275,5.5,5.5,0,0,1,3.209-.745,6.017,6.017,0,0,1,4.807,3.162,7.608,7.608,0,0,1,.787,3.54,18.748,18.748,0,0,1-.475,4.472,6.4,6.4,0,0,1-.835,2.01c-.278.442,0,.651.33.792,1.633.687,3.305,1.291,4.9,2.054a5.123,5.123,0,0,1,2.277,2.316c.081.155.105.348.323.347.2,0,.187-.2.261-.326a6.221,6.221,0,0,1,3.46-2.835,36.26,36.26,0,0,0,3.778-1.6c.344-.159.552-.41.267-.932a7.218,7.218,0,0,1-.991-3.281c-.035-1.106-.394-2.2-.334-3.336a6.554,6.554,0,0,1,2.8-5.407,5.454,5.454,0,0,1,4.362-.916,5.955,5.955,0,0,1,4.7,4.478,11.38,11.38,0,0,1,.036,2.779h.05" transform="translate(0 -76.243)" fill="#ba9950"/>
    <path id="Path_50" data-name="Path 50" d="M115.171,28.5c-.243-1.477,1.874-3.436,3.29-3.351a3.658,3.658,0,0,1,3.552,3.424c.174,1.541-1.832,3.471-3.414,3.476a3.726,3.726,0,0,1-3.428-3.549m2.615.115a1.052,1.052,0,0,0,.758.763c.228,0,.886-.62.815-.825-.123-.355-.256-.752-.751-.762a.844.844,0,0,0-.823.823" transform="translate(-85.238 -18.616)" fill="#ba9950"/>
    <path id="Path_51" data-name="Path 51" d="M57.726,28.737a3.427,3.427,0,0,1-3.392,3.308c-1.66.094-3.617-1.816-3.447-3.39a3.42,3.42,0,1,1,6.839.082m-3.4-.867a.99.99,0,0,0-.8.716c-.023.214.566.911.783.859.372-.089.752-.238.8-.712a.835.835,0,0,0-.779-.862" transform="translate(-37.66 -18.689)" fill="#ba9950"/>
    <path id="Path_52" data-name="Path 52" d="M90.132,28.6a3.339,3.339,0,0,1-3.179,3.458,3.437,3.437,0,0,1-3.365-3.382,3.3,3.3,0,0,1,3.206-3.463c1.548-.051,3.6,1.418,3.337,3.387m-2.607.015c-.009-.492-.2-.786-.692-.766-.467.019-.607.324-.614.74-.008.448.228.821.627.834.453.014.676-.38.679-.808" transform="translate(-61.871 -18.659)" fill="#ba9950"/>
  </g>
</svg>
