<svg xmlns="http://www.w3.org/2000/svg" width="66.079" height="50.04" viewBox="0 0 66.079 50.04">
  <g id="Community-icon" transform="translate(-0.041 0.037)">
    <path id="Path_53" data-name="Path 53" d="M68.27,93.48c-4.123,0-7.877.007-12,0-1.5,0-3-.494-3-2-.007-4.983.055-10.018,0-15a9.92,9.92,0,0,1,4-8,8.965,8.965,0,0,1,6-2c3.349.058,6.65.038,10,0,1.975-.022,3.448.914,5,2,1.476,1.033,3.286,2.345,4,4a7.062,7.062,0,0,1,1,3c-.031,5.269,0,10.731,0,16,0,1.577-1.441,2-3,2-4.152.007-7.848,0-12,0Zm0-5c3.063,0,5.937.972,9,1,.711.007,1.015-.293,1-1-.036-1.66.081-3.343,0-5-.13-2.666.771-5.337,0-8a8.2,8.2,0,0,0-3-4,6.408,6.408,0,0,0-4-1c-2.118.043-4.884.081-7,0a7.335,7.335,0,0,0-3,1c-2.315.988-2.91,2.591-3,5-.139,3.688.034,7.307,0,11-.007.791.217,2.009,1,2,3.034-.035,5.965-1,9-1" transform="translate(-35.194 -43.481)" fill="#ba9950"/>
    <path id="Path_54" data-name="Path 54" d="M148.422,69.609c0,2.462.014,5.538,0,8a1.754,1.754,0,0,1-2,2c-3.55.01-7.45.011-11,0-1.413,0-2-.5-2-2s.618-2.992,2-3c2.4-.014,5.6-.033,8,0,.752.01,1.011-.177,1-1-.041-3.005.122-6,0-9-.1-2.39-1.774-3.961-4-5a7.546,7.546,0,0,0-3-1c-3.349.038-6.65.006-10,0-1.077,0-1.783-.2-2-1a2.836,2.836,0,0,1,1-3c.3-.212.656,0,1,0,4.209,0,8.794-.1,13,0a6.374,6.374,0,0,1,4,1,10.89,10.89,0,0,1,4,6,3.467,3.467,0,0,1,0,1c.009,2.4,0,4.6,0,7h0" transform="translate(-82.345 -35.609)" fill="#ba9950"/>
    <path id="Path_55" data-name="Path 55" d="M.076,69.59c0-2.235-.08-3.768,0-6a8.972,8.972,0,0,1,5-8,9.231,9.231,0,0,1,5-1c3.351.067,6.648,0,10,0,1.756,0,2.9.4,3,2,.083,1.292-1.45,2.046-3,2-3.292-.1-5.711-.139-9,0-2.3.1-4.9.729-6,3a7.8,7.8,0,0,0-1,3c-.06,3.007.035,5.992,0,9-.009.782.282,1.009,1,1,2.406-.03,5.593-.013,8,0,1.421.008,2,1.5,2,3s-.617,2-2,2c-3.581.012-7.419.012-11,0a1.789,1.789,0,0,1-2-2c-.014-2.492,0-5.508,0-8h0" transform="translate(0 -35.59)" fill="#ba9950"/>
    <path id="Path_56" data-name="Path 56" d="M125.47,9c-.481-4.439,4.682-9.016,9-9,4.368.017,8.02,4.689,8,9a8.04,8.04,0,0,1-8,8c-4.2.009-9.513-3.623-9-8m5,0c-.016,1.75,2.243,3.017,4,3a2.866,2.866,0,0,0,3-3c-.063-1.784-1.248-3.962-3-4-1.7-.037-3.984,2.268-4,4" transform="translate(-82.393)" fill="#ba9950"/>
    <path id="Path_57" data-name="Path 57" d="M25.484.132c4.266-.459,9.234,3.823,9,9-.163,3.6-4.44,8.073-9,8a8.454,8.454,0,0,1-8-9c.172-3.622,3.562-8.507,8-8m0,12c1.77-.035,4.058-2.29,4-4-.058-1.73-2.3-2.994-4-3-1.848-.006-2.988,2.139-3,4a2.9,2.9,0,0,0,3,3" transform="translate(-11.407 -0.132)" fill="#ba9950"/>
    <path id="Path_58" data-name="Path 58" d="M79.92,12.016c4.4-.436,8.964,4.683,9,9,.038,4.456-4.515,8.034-9,8-4.232-.032-9.043-3.477-9-8,.041-4.331,4.51-9.461,9-9m0,5c-1.8-.059-3.941,2.123-4,4-.054,1.7,2.228,3.939,4,4,1.7.059,3.95-2.223,4-4,.048-1.707-2.219-3.942-4-4" transform="translate(-46.844 -8.016)" fill="#ba9950"/>
  </g>
</svg>
