<svg xmlns="http://www.w3.org/2000/svg" width="22" height="16.762" viewBox="0 0 22 16.762">
  <path id="Discord" d="M44.653,33.415a.056.056,0,0,0-.029-.026A18.149,18.149,0,0,0,40.146,32a.068.068,0,0,0-.072.034,12.626,12.626,0,0,0-.557,1.145,16.756,16.756,0,0,0-5.03,0,11.583,11.583,0,0,0-.566-1.145A.071.071,0,0,0,33.849,32a18.1,18.1,0,0,0-4.478,1.388.064.064,0,0,0-.029.025,18.554,18.554,0,0,0-3.25,12.517.075.075,0,0,0,.029.051,18.246,18.246,0,0,0,5.493,2.776.071.071,0,0,0,.077-.025,13.028,13.028,0,0,0,1.124-1.827.07.07,0,0,0-.038-.1,12.017,12.017,0,0,1-1.716-.818.071.071,0,0,1-.007-.117c.115-.086.231-.176.341-.267a.068.068,0,0,1,.071-.01,13.015,13.015,0,0,0,11.056,0,.068.068,0,0,1,.072.009c.11.091.226.181.342.268a.07.07,0,0,1-.006.117,11.277,11.277,0,0,1-1.717.817.07.07,0,0,0-.037.1A14.631,14.631,0,0,0,42.3,48.732a.07.07,0,0,0,.077.026,18.185,18.185,0,0,0,5.5-2.776.07.07,0,0,0,.029-.051A18.431,18.431,0,0,0,44.653,33.415Zm-11.3,10.018a2.231,2.231,0,0,1,0-4.433,2.231,2.231,0,0,1,0,4.433Zm7.31,0a2.231,2.231,0,0,1,0-4.433,2.231,2.231,0,0,1,0,4.433Z" transform="translate(-26 -32)" fill="#1a1818"/>
</svg>
