<svg xmlns="http://www.w3.org/2000/svg" width="20" height="20" viewBox="0 0 20 20">
  <g id="Insta" transform="translate(-3.4 -4.8)">
    <path id="Path_61" data-name="Path 61" d="M20.561,16.7a5.161,5.161,0,1,0,5.161,5.161A5.171,5.171,0,0,0,20.561,16.7Zm0,8.468a3.306,3.306,0,1,1,3.306-3.306A3.321,3.321,0,0,1,20.561,25.168Z" transform="translate(-7.161 -7.102)" fill="#1a1818"/>
    <circle id="Ellipse_1" data-name="Ellipse 1" cx="1.169" cy="1.169" r="1.169" transform="translate(17.594 8.308)" fill="#1a1818"/>
    <path id="Path_62" data-name="Path 62" d="M21.787,6.453A5.743,5.743,0,0,0,17.553,4.8H9.247A5.524,5.524,0,0,0,3.4,10.647v8.266a5.8,5.8,0,0,0,1.694,4.315A5.884,5.884,0,0,0,9.287,24.8h8.226a5.954,5.954,0,0,0,4.234-1.573A5.773,5.773,0,0,0,23.4,18.953V10.647A5.78,5.78,0,0,0,21.787,6.453Zm-.161,12.5A3.94,3.94,0,0,1,20.456,21.9a4.168,4.168,0,0,1-2.944,1.048H9.287A4.168,4.168,0,0,1,6.344,21.9a4.053,4.053,0,0,1-1.089-2.984V10.647A4.02,4.02,0,0,1,6.344,7.7,4.1,4.1,0,0,1,9.287,6.655h8.306a4.02,4.02,0,0,1,2.944,1.089,4.161,4.161,0,0,1,1.089,2.9v8.306Z" fill="#1a1818"/>
  </g>
</svg>
