<svg xmlns="http://www.w3.org/2000/svg" width="50" height="50" viewBox="0 0 50 50">
  <g id="Tools-icon" transform="translate(-2 -2)">
    <path id="Path_25" data-name="Path 25" d="M18.667,18.667a8.315,8.315,0,0,0-6.25-8.042V4.083a2.083,2.083,0,1,0-4.167,0v6.542a8.3,8.3,0,0,0,0,16.083V49.917a2.083,2.083,0,0,0,4.167,0V26.708A8.315,8.315,0,0,0,18.667,18.667Zm-8.333,4.167A4.167,4.167,0,1,1,14.5,18.667,4.179,4.179,0,0,1,10.333,22.833Z" fill="#ba9950"/>
    <path id="Path_26" data-name="Path 26" d="M16.417,31.458V4.083a2.083,2.083,0,1,0-4.167,0V31.458a8.3,8.3,0,0,0,0,16.083v2.375a2.083,2.083,0,0,0,4.167,0V47.542a8.3,8.3,0,0,0,0-16.083ZM14.333,43.667A4.167,4.167,0,1,1,18.5,39.5,4.179,4.179,0,0,1,14.333,43.667Z" transform="translate(12.667)" fill="#ba9950"/>
    <path id="Path_27" data-name="Path 27" d="M26.667,14.5a8.315,8.315,0,0,0-6.25-8.042V4.083a2.083,2.083,0,1,0-4.167,0V6.458a8.3,8.3,0,0,0,0,16.083V49.917a2.083,2.083,0,0,0,4.167,0V22.542A8.315,8.315,0,0,0,26.667,14.5Zm-8.333,4.167A4.167,4.167,0,1,1,22.5,14.5,4.179,4.179,0,0,1,18.333,18.667Z" transform="translate(25.333)" fill="#ba9950"/>
  </g>
</svg>
