<svg xmlns="http://www.w3.org/2000/svg" width="49.995" height="50" viewBox="0 0 49.995 50">
  <g id="Courses-icon" transform="translate(0 0)">
    <path id="Path_28" data-name="Path 28" d="M24.994,70.369c-7.638,0-15.275-.016-22.913.016A2.023,2.023,0,0,1,0,68.311q.036-21.152,0-42.3a1.982,1.982,0,0,1,2.079-2.072c1.27.057,2.545.011,3.818.014.453,0,.49.036.491.484q0,2.836,0,5.673a1.749,1.749,0,0,0,.934,1.649,1.955,1.955,0,0,0,.969.2c1.656.005,3.312.01,4.968,0a1.732,1.732,0,0,0,1.881-1.9c.007-1.854,0-3.707,0-5.561,0-.52.023-.542.545-.542H34.3c.547,0,.564.018.564.561q0,2.8,0,5.6a1.721,1.721,0,0,0,.963,1.666,1.955,1.955,0,0,0,.9.181c1.681,0,3.362.011,5.042,0a1.714,1.714,0,0,0,1.844-1.861c.01-1.866,0-3.732.005-5.6,0-.521.023-.544.543-.544q1.928,0,3.856,0a1.848,1.848,0,0,1,1.975,1.965q0,11.067,0,22.134,0,10.177,0,20.354a1.85,1.85,0,0,1-1.351,1.9,2.04,2.04,0,0,1-.661.061H24.994m.018-3.7H45.662c.627,0,.628,0,.628-.633q0-14.421,0-28.843c0-.633,0-.634-.625-.635H4.329c-.609,0-.609,0-.609.615q0,14.44,0,28.88c0,.1,0,.2,0,.3-.006.213.088.325.308.319.123,0,.247,0,.371,0H25.013" transform="translate(0 -20.384)" fill="#ba9950"/>
    <path id="Path_29" data-name="Path 29" d="M60.1,4.541c0-1.136,0-2.271,0-3.407A.977.977,0,0,1,61.209.02c.531,0,1.062-.008,1.592,0a.936.936,0,0,1,1,1q.009,3.518,0,7.036a.938.938,0,0,1-1,1q-.851.014-1.7,0a.937.937,0,0,1-1-1c-.008-1.173,0-2.345,0-3.518" transform="translate(-51.184 -0.014)" fill="#ba9950"/>
    <path id="Path_30" data-name="Path 30" d="M255.8,4.539c0,1.136,0,2.271,0,3.407a.97.97,0,0,1-1.086,1.1c-.543,0-1.086.008-1.629,0a.929.929,0,0,1-.983-.976q-.012-3.536,0-7.073a.93.93,0,0,1,.971-.988q.87-.018,1.74,0a.942.942,0,0,1,.986,1.013c.007,1.173,0,2.345,0,3.518" transform="translate(-214.707 0)" fill="#ba9950"/>
    <path id="Path_31" data-name="Path 31" d="M86.374,132.025q1.742,0,3.485,0c.452,0,.492.039.492.483q0,3.5,0,7.007c0,.3-.049.587-.359.71A.72.72,0,0,1,89.16,140c-.584-.6-1.195-1.182-1.774-1.79-.229-.241-.371-.219-.6.008q-4.04,4.059-8.1,8.1c-.542.542-.746.558-1.371.14-1.5-1-3-2-4.5-3a.439.439,0,0,0-.593.05q-3.242,2.441-6.491,4.872a2.707,2.707,0,0,1-.427.292.619.619,0,0,1-.822-.3c-.591-.868-1.171-1.742-1.755-2.614-.426-.636-.862-1.266-1.273-1.912-.144-.226-.253-.232-.466-.085q-1.3.892-2.617,1.751a1.028,1.028,0,0,1-1.611-.346c-.266-.4-.53-.8-.8-1.2a.99.99,0,0,1,.291-1.506c1.362-.917,2.732-1.822,4.1-2.733q.616-.411,1.231-.825c.551-.369.858-.3,1.225.26.919,1.391,1.852,2.772,2.762,4.168.2.3.34.285.6.085,1.889-1.434,3.789-2.853,5.687-4.276.477-.357.6-.366,1.091-.044,1.452.96,2.906,1.918,4.349,2.893.23.156.352.108.527-.068q3.164-3.179,6.343-6.343c.222-.221.213-.361,0-.57-.6-.574-1.167-1.175-1.764-1.748a.747.747,0,0,1-.264-.857c.135-.348.456-.369.778-.368,1.149,0,2.3,0,3.448,0" transform="translate(-47.477 -112.443)" fill="#ba9950"/>
    <path id="Path_32" data-name="Path 32" d="M255.8,221.46q0,2.13,0,4.259a.978.978,0,0,1-1.107,1.118c-.531,0-1.062.007-1.592,0a.935.935,0,0,1-1-1q-.008-4.407,0-8.815a.935.935,0,0,1,.993-1c.555-.01,1.111-.008,1.667,0a.95.95,0,0,1,1.038,1.036c.006,1.469,0,2.938,0,4.407" transform="translate(-214.709 -183.973)" fill="#ba9950"/>
    <path id="Path_33" data-name="Path 33" d="M60.09,243.61c0-.839,0-1.678,0-2.518a.964.964,0,0,1,1.075-1.074c.543,0,1.086-.008,1.629,0a.936.936,0,0,1,1,1q.01,2.629,0,5.257a.938.938,0,0,1-1,1c-.567.009-1.135.011-1.7,0a.943.943,0,0,1-1-1c-.008-.888,0-1.777,0-2.666" transform="translate(-51.176 -204.416)" fill="#ba9950"/>
    <path id="Path_34" data-name="Path 34" d="M159.793,243.639c0,.852,0,1.7,0,2.555a.969.969,0,0,1-1.077,1.075c-.543,0-1.086.007-1.629,0a.936.936,0,0,1-.995-1q-.012-2.629,0-5.257a.941.941,0,0,1,1-1c.58-.009,1.16-.01,1.74,0a.926.926,0,0,1,.956.964c.012.888,0,1.777,0,2.666Z" transform="translate(-132.935 -204.404)" fill="#ba9950"/>
    <path id="Path_35" data-name="Path 35" d="M207.783,254.779c0,.567.008,1.135,0,1.7a.941.941,0,0,1-1,1c-.58.01-1.16.012-1.739,0a.923.923,0,0,1-.96-.96q-.018-1.776,0-3.553a.929.929,0,0,1,.958-.963c.592-.013,1.184-.012,1.776,0a.927.927,0,0,1,.961.959c.013.6,0,1.209,0,1.813" transform="translate(-173.808 -214.621)" fill="#ba9950"/>
    <path id="Path_36" data-name="Path 36" d="M109.9,267.7c-.284,0-.567.007-.851,0a.937.937,0,0,1-.971-.951q-.022-.906,0-1.813a.916.916,0,0,1,.91-.931c.616-.019,1.233-.018,1.85,0a.926.926,0,0,1,.935.948q.019.906,0,1.813a.929.929,0,0,1-.947.935c-.308.011-.617,0-.925,0Z" transform="translate(-92.036 -224.839)" fill="#ba9950"/>
  </g>
</svg>
