<svg xmlns="http://www.w3.org/2000/svg" width="41.403" height="50" viewBox="0 0 41.403 50">
  <g id="eBook-icon" transform="translate(0.001 -0.001)">
    <path id="Path_37" data-name="Path 37" d="M54.007,65.774q0-9.276,0-18.552a5.392,5.392,0,0,1,4.244-5.1,6.848,6.848,0,0,1,1.313-.114H86.246c.554,0,.564.01.565.556q0,.788,0,1.576c0,.577-.01.587-.573.588H77.322q-8.864,0-17.728,0a2.72,2.72,0,0,0-2.441,1.227,2.419,2.419,0,0,0,1.046,3.5,3.328,3.328,0,0,0,1.46.287l26.4,0c1.129,0,1.618.486,1.618,1.61q0,16.439,0,32.878c0,.107,0,.215,0,.322a1.343,1.343,0,0,1-1.44,1.431q-5.677.005-11.353,0-9.527,0-19.054,0a3.58,3.58,0,0,1-.784-.041,1.352,1.352,0,0,1-1.032-1.442q0-9.366,0-18.731m2.72,1.752q0,7.574,0,15.148c0,.595,0,.6.586.6h27.11c.529,0,.529,0,.529-.543q0-14.773,0-29.545c0-.717,0-.717-.718-.717H59.345A5.192,5.192,0,0,1,57.193,52c-.445-.2-.467-.2-.467.3q0,7.61,0,15.22" transform="translate(-46.27 -35.99)" fill="#ba9950"/>
    <path id="Path_38" data-name="Path 38" d="M0,22.391q0-10.4,0-20.808A1.383,1.383,0,0,1,1.577,0L32.055,0c1.124,0,1.607.488,1.61,1.621,0,.8-.007,1.6,0,2.4,0,.308-.113.428-.421.422-.632-.013-1.266-.011-1.9,0-.289,0-.416-.107-.406-.4.012-.322-.007-.645,0-.967.008-.263-.108-.374-.364-.355-.071.005-.143,0-.215,0H3.4c-.679,0-.68,0-.68.683q0,19.053,0,38.107c0,.612,0,.612.6.613.8,0,1.6.01,2.4,0,.327-.006.446.12.439.443-.015.632-.011,1.265,0,1.9,0,.274-.109.386-.383.385-1.492-.006-2.985.007-4.477-.008A1.33,1.33,0,0,1,0,43.414Q0,37.38,0,31.345V22.391" transform="translate(0 0)" fill="#ba9950"/>
    <path id="Path_39" data-name="Path 39" d="M105.957,152.719H96.578c-.573,0-.577-.005-.578-.578,0-.537,0-1.074,0-1.611,0-.5.025-.529.522-.53q3.24,0,6.479,0h12.314c.6,0,.6,0,.6.6,0,.537,0,1.074,0,1.611,0,.481-.03.511-.5.512q-2.22,0-4.439,0h-5.012Z" transform="translate(-82.246 -128.508)" fill="#ba9950"/>
    <path id="Path_40" data-name="Path 40" d="M185.385,207.3c-.043-1.467.07-2.932.083-4.4,0-.553.223-.686.716-.434q3.055,1.563,6.1,3.138a1.78,1.78,0,0,1,.214.13c.332.235.345.483,0,.7-.453.286-.93.535-1.393.805-.4.231-.422.34-.177.738.512.832,1.03,1.661,1.542,2.493.241.392.215.533-.164.8-.534.38-1.071.757-1.619,1.118-.386.254-.573.2-.817-.2-.556-.9-1.111-1.808-1.672-2.708-.219-.351-.3-.363-.659-.145-.48.289-.956.584-1.439.867-.443.26-.716.108-.719-.4,0-.835,0-1.67,0-2.5" transform="translate(-158.818 -173.359)" fill="#ba9950"/>
    <path id="Path_41" data-name="Path 41" d="M99.91,194.707H96.548c-.539,0-.553-.014-.554-.567,0-.584.008-1.169,0-1.753-.005-.291.113-.4.4-.4q3.541.008,7.082,0c.3,0,.4.124.4.409-.01.632-.012,1.264,0,1.9.006.308-.115.423-.422.421-1.18-.01-2.361,0-3.541,0Z" transform="translate(-82.239 -164.478)" fill="#ba9950"/>
    <path id="Path_42" data-name="Path 42" d="M99.918,227.979q1.717,0,3.434,0c.473,0,.5.028.5.512,0,.608-.006,1.216,0,1.824,0,.275-.112.383-.385.382q-3.559-.007-7.119,0c-.279,0-.381-.122-.377-.39.008-.632.014-1.264,0-1.9-.008-.326.117-.442.441-.439,1.168.012,2.337,0,3.506,0" transform="translate(-82.223 -195.312)" fill="#ba9950"/>
    <path id="Path_43" data-name="Path 43" d="M99.9,266.712c-1.157,0-2.313-.008-3.47,0-.339,0-.469-.116-.459-.458.018-.62.012-1.24,0-1.86,0-.285.1-.409.4-.408q3.541.009,7.082,0c.29,0,.408.11.4.4-.011.632-.014,1.264,0,1.9.008.335-.139.432-.452.429-1.168-.01-2.337,0-3.505,0" transform="translate(-82.223 -226.169)" fill="#ba9950"/>
  </g>
</svg>
