<svg xmlns="http://www.w3.org/2000/svg" width="50.015" height="50" viewBox="0 0 50.015 50">
  <g id="Webinar-icon" transform="translate(0)">
    <path id="Path_44" data-name="Path 44" d="M25.069,60.508c-6.054,0-12.109.027-18.162-.013a6.64,6.64,0,0,1-5.738-3.523A8.378,8.378,0,0,1,0,52.352C.054,42.877.019,33.4.035,23.928A7.6,7.6,0,0,1,4.75,16.967,6.434,6.434,0,0,1,7.2,16.523q5.857-.008,11.715,0c1.375,0,2.038.429,2.17,1.388a2.139,2.139,0,0,1-1.9,2.17,5.613,5.613,0,0,1-1.174.074c-3.632.007-7.265.043-10.9-.012A3.313,3.313,0,0,0,4.6,21.521c-.33.341-.094.46.255.472C5.1,22,5.34,22,5.583,22c4.329,0,8.658.014,12.986-.012a2.716,2.716,0,0,1,2.014.848,1.491,1.491,0,0,1,.412,1.737,1.586,1.586,0,0,1-1.605,1.074c-4.783-.026-9.565-.008-14.348-.006-1.368,0-1.368,0-1.368,1.336,0,8.627.021,17.254-.022,25.881a4.418,4.418,0,0,0,2.3,3.833c.642.438,1.155.109,1.168-.709.022-1.422,0-2.845.011-4.268.026-4.041,1.18-7.579,4.59-10.068.6-.44.649-.779.167-1.343a7.357,7.357,0,0,1-1.4-6.655,6.861,6.861,0,0,1,4.744-5.23,9.066,9.066,0,0,1,3.188-.433A7.7,7.7,0,0,1,24.991,33.1a9.216,9.216,0,0,1,.482,2.725,7.028,7.028,0,0,1-1.366,4.018c-.809,1.133-.8,1.1.208,2.06a9.842,9.842,0,0,1,2.42,2.774,1.378,1.378,0,0,0,1.415.756c2.239-.037,4.48-.021,6.72-.009a3.227,3.227,0,0,1,3.152,3.145,18.11,18.11,0,0,1-.925,4.452c-.215.965-.472,1.915-.706,2.873-.162.663.151,1,.885.995,1.967-.027,3.935,0,5.9-.02a3.357,3.357,0,0,0,3.175-3.2q.026-8.4,0-16.8a4.436,4.436,0,0,1,.588-2.231c.433-.791,1.147-.71,1.828-.635a1.364,1.364,0,0,1,1.207,1.175,3.427,3.427,0,0,1,.032.724c0,5.963-.025,11.927,0,17.89.011,2.46-2.151,5.238-4.339,6.188a8.054,8.054,0,0,1-3.346.543q-8.627,0-17.254,0Zm.7-3.634c1.965,0,3.93,0,5.895,0,.39,0,.964.021.958-.45a15.325,15.325,0,0,1,.671-2.783,23.279,23.279,0,0,1,.9-3.436c.258-.778.147-1.134-.642-1.137-4.051-.014-8.1-.007-12.153,0-.3,0-.712,0-.746.356-.066.713-.49,1.294-.615,1.976a33.939,33.939,0,0,1-.963,3.992c-.374,1.2-.086,1.527.982,1.5,1.9-.048,3.809-.013,5.713-.014M22.66,45.415A1.411,1.411,0,0,0,22,44.648a19.581,19.581,0,0,0-2.762-1.212c-1.546-.731-2.872-.1-4.085.371-2.744,1.071-4.052,3.44-4.341,6.258-.2,1.976-.035,3.988-.05,5.984,0,.569.222.836.8.827.907-.015,1.815-.017,2.722,0,.682.013.912-.3,1.016-.97.172-1.114.5-2.2.768-3.3a26.271,26.271,0,0,0,.815-3.293,4.48,4.48,0,0,1,4.135-3.9c.511.009,1.022,0,1.635,0m-4.819-5.981a3.955,3.955,0,0,0,4.015-3.817,4.358,4.358,0,0,0-4.039-4.032A4.127,4.127,0,0,0,13.968,35.6a3.594,3.594,0,0,0,3.873,3.83" transform="translate(0 -10.517)" fill="#ba9950"/>
    <path id="Path_45" data-name="Path 45" d="M77.85.016c2.239,0,4.48.047,6.718-.013a6.43,6.43,0,0,1,5.584,2.734A4.092,4.092,0,0,1,91.1,5.294c-.04,3.48-.052,6.961,0,10.44.031,1.987-2.225,4.226-3.675,4.853-1.8.777-3.632.556-5.435.464a7.4,7.4,0,0,0-4.407,1.267q-2.231,1.371-4.478,2.718a1.988,1.988,0,0,1-3.079-1.592c-.021-.21-.011-.423-.012-.635-.008-1.675-.073-1.761-1.687-2.235a5.573,5.573,0,0,1-3.787-4.985q-.017-5.129,0-10.258c.007-1.839,1.909-4.122,3.6-4.792A10.74,10.74,0,0,1,72.221.02c1.876-.01,3.752,0,5.628,0m-4.2,20.5c1.356-.815,2.589-1.5,3.76-2.278A4.453,4.453,0,0,1,80.2,17.44c1.6.074,3.208.029,4.813.015a2.241,2.241,0,0,0,2.434-2.4q.012-4.541,0-9.082a2.188,2.188,0,0,0-2.244-2.3q-7.4-.028-14.8,0a2.233,2.233,0,0,0-2.216,2.25q-.019,4.541,0,9.083a2.3,2.3,0,0,0,2.484,2.448c.484.007.97-.017,1.452.019a1.542,1.542,0,0,1,1.526,1.578c.017.421,0,.844,0,1.458" transform="translate(-41.09 0)" fill="#ba9950"/>
    <path id="Path_46" data-name="Path 46" d="M87.818,16.519c1.933,0,3.867-.011,5.8,0A1.522,1.522,0,0,1,95.344,18a1.59,1.59,0,0,1-.993,1.745,3.554,3.554,0,0,1-1.649.4c-3.262,0-6.525-.008-9.787.006a3.419,3.419,0,0,1-1.889-.531,1.466,1.466,0,0,1-.766-1.677c.2-.712.487-1.448,1.489-1.436,2.024.025,4.048.008,6.072.008v-.006" transform="translate(-51.064 -10.515)" fill="#ba9950"/>
    <path id="Path_47" data-name="Path 47" d="M86.07,35.225c-1.3,0-2.6,0-3.9,0-1.352,0-2.25-.658-2.275-1.65-.021-.814,1.14-1.883,2.189-1.969.571-.047,1.149-.018,1.723-.019,1.876,0,3.751.01,5.627,0A3.087,3.087,0,0,1,91.152,32c.917.56,1.252,1.134.944,2.132a1.575,1.575,0,0,1-1.761,1.1c-1.421-.032-2.843-.009-4.265-.01" transform="translate(-50.867 -20.105)" fill="#ba9950"/>
  </g>
</svg>
